<svg version="1.1" id="Layer_1" xmlns="http://www.w3.org/2000/svg" xmlns:xlink="http://www.w3.org/1999/xlink" x="0px" y="0px"
	 width="100%" viewBox="0 0 500 500" enable-background="new 0 0 500 500" xml:space="preserve">
<path fill="#008037" opacity="1.000000" stroke="none" 
	d="
M268.000000,501.000000 
	C256.645782,501.000000 245.291550,501.000000 233.287018,500.633148 
	C229.837601,499.882324 227.041779,499.472412 224.238907,499.118195 
	C169.388885,492.186768 123.361404,467.582977 86.864777,426.745331 
	C30.375332,363.536957 11.424118,288.806274 25.524086,205.935104 
	C34.257133,154.607483 57.188705,109.611656 94.590874,73.027328 
	C147.081299,21.684673 210.105362,-1.001161 283.226837,9.586493 
	C339.535919,17.739792 386.129639,45.156059 422.091217,89.094093 
	C473.100250,151.417145 490.050385,223.271378 476.498932,302.059845 
	C467.701935,353.205780 444.714996,397.844299 407.767914,434.616028 
	C373.328308,468.892181 332.278900,490.866364 283.891724,498.301300 
	C278.581604,499.117218 273.296631,500.096497 268.000000,501.000000 
M281.996582,238.830231 
	C282.051697,239.087524 282.095062,239.346786 281.608490,240.020447 
	C280.747986,240.994522 279.887482,241.968597 278.410126,243.217209 
	C275.877258,245.871384 273.344391,248.525574 270.256439,251.480957 
	C266.590698,253.779572 266.173737,256.765991 267.387543,260.851471 
	C284.836212,319.580780 360.469757,338.811401 403.778839,295.457947 
	C435.829865,263.373993 436.450470,212.233414 404.417450,179.904251 
	C381.961517,157.240677 354.429352,149.671432 323.676605,158.433792 
	C294.015686,166.885086 275.199982,186.977463 266.567719,216.655197 
	C265.288177,221.054199 266.247192,224.076508 270.332397,226.955276 
	C273.193878,229.777893 276.055389,232.600510 279.180939,235.975586 
	C280.094330,236.798248 281.007721,237.620911 281.996582,238.830231 
M91.265160,192.808472 
	C79.035957,210.938644 75.051262,231.009399 78.297173,252.364883 
	C83.993607,289.842896 115.768349,319.258942 152.793274,321.944061 
	C192.136444,324.797302 227.241119,301.513763 239.284744,264.773651 
	C240.388992,261.405060 239.897583,259.255463 237.342834,256.903412 
	C231.270874,251.313248 225.428391,245.473816 219.363205,239.609436 
	C226.002640,232.944580 231.796799,226.981506 237.774231,221.208145 
	C239.847733,219.205414 240.304855,217.380234 239.398315,214.595612 
	C234.542236,199.679291 226.582748,186.755402 214.572876,176.646912 
	C175.927002,144.119385 121.478180,151.095215 91.265160,192.808472 
z"/>
<path fill="#FEFFFF" opacity="1.000000" stroke="none" 
	d="
M268.468658,501.000000 
	C273.296631,500.096497 278.581604,499.117218 283.891724,498.301300 
	C332.278900,490.866364 373.328308,468.892181 407.767914,434.616028 
	C444.714996,397.844299 467.701935,353.205780 476.498932,302.059845 
	C490.050385,223.271378 473.100250,151.417145 422.091217,89.094093 
	C386.129639,45.156059 339.535919,17.739792 283.226837,9.586493 
	C210.105362,-1.001161 147.081299,21.684673 94.590874,73.027328 
	C57.188705,109.611656 34.257133,154.607483 25.524086,205.935104 
	C11.424118,288.806274 30.375332,363.536957 86.864777,426.745331 
	C123.361404,467.582977 169.388885,492.186768 224.238907,499.118195 
	C227.041779,499.472412 229.837601,499.882324 232.818359,500.633148 
	C155.683853,501.000000 78.367722,501.000000 1.025790,501.000000 
	C1.025790,334.387573 1.025790,167.775162 1.025790,1.081371 
	C167.575333,1.081371 334.150726,1.081371 500.863037,1.081371 
	C500.863037,167.666595 500.863037,334.333282 500.863037,501.000000 
	C423.569244,501.000000 346.253265,501.000000 268.468658,501.000000 
z"/>
<path fill="#EA4759" opacity="1.000000" stroke="none" 
	d="
M91.480255,192.517990 
	C121.478180,151.095215 175.927002,144.119385 214.572876,176.646912 
	C226.582748,186.755402 234.542236,199.679291 239.398315,214.595612 
	C240.304855,217.380234 239.847733,219.205414 237.774231,221.208145 
	C231.796799,226.981506 226.002640,232.944580 219.363205,239.609436 
	C225.428391,245.473816 231.270874,251.313248 237.342834,256.903412 
	C239.897583,259.255463 240.388992,261.405060 239.284744,264.773651 
	C227.241119,301.513763 192.136444,324.797302 152.793274,321.944061 
	C115.768349,319.258942 83.993607,289.842896 78.297173,252.364883 
	C75.051262,231.009399 79.035957,210.938644 91.480255,192.517990 
M166.094650,199.422913 
	C142.493774,199.422913 118.892914,199.422913 95.204590,199.422913 
	C95.204590,206.420853 95.204590,212.703552 95.204590,219.594833 
	C120.144753,219.594833 144.871231,219.594833 170.246964,219.594833 
	C168.068710,225.627991 165.942459,230.851837 164.374893,236.238281 
	C163.861786,238.001404 164.182999,241.358490 165.220261,241.905579 
	C166.783569,242.730103 169.875153,242.480316 171.342102,241.383347 
	C186.662033,229.927246 203.460266,221.277847 221.108307,214.080246 
	C222.910904,213.345093 225.221329,210.939133 225.167343,209.382324 
	C225.112625,207.804230 222.688583,205.641891 220.835236,204.896164 
	C203.303024,197.841858 186.688965,189.208664 171.532104,177.816422 
	C170.015778,176.676712 167.395248,177.006104 165.287155,176.653671 
	C164.975281,178.778519 163.991943,181.076523 164.486282,182.993454 
	C165.644073,187.482925 167.420532,191.824997 169.125153,196.156433 
	C170.043671,198.490417 169.715500,199.638794 166.094650,199.422913 
M139.909302,243.432495 
	C126.792923,250.235413 113.636543,256.963318 100.600273,263.916412 
	C98.474396,265.050293 96.879044,267.178802 95.038483,268.847595 
	C96.825607,270.527374 98.325691,272.908356 100.445259,273.775970 
	C117.457588,280.739655 133.665970,289.054321 148.381042,300.204132 
	C150.116837,301.519379 153.041977,301.264954 155.415787,301.738159 
	C155.564346,299.282654 156.348694,296.652679 155.732346,294.407135 
	C154.345230,289.353424 152.263962,284.490265 150.181122,278.769226 
	C175.873413,278.769226 200.587555,278.769226 225.358948,278.769226 
	C225.358948,271.959473 225.358948,265.702362 225.358948,258.879944 
	C200.382385,258.879944 175.701843,258.879944 150.324158,258.879944 
	C152.581955,252.556641 154.783569,247.013931 156.449341,241.314621 
	C156.901016,239.769211 156.287811,237.024277 155.150894,236.156723 
	C154.049713,235.316452 151.317123,235.603470 149.880203,236.417587 
	C146.570648,238.292694 143.612701,240.788422 139.909302,243.432495 
z"/>
<path fill="#FDDF02" opacity="1.000000" stroke="none" 
	d="
M270.811493,251.179749 
	C273.344391,248.525574 275.877258,245.871384 278.863159,243.454926 
	C279.634552,245.821548 279.873230,247.965927 280.283051,250.077103 
	C287.871429,289.169037 328.807281,313.189301 366.843170,300.884979 
	C398.432007,290.666260 418.101471,257.505188 411.730499,224.911652 
	C405.219421,191.601364 378.012878,171.100342 347.927032,170.223450 
	C310.517487,169.133102 281.451904,197.130524 278.916901,235.423111 
	C276.055389,232.600510 273.193878,229.777893 270.343567,226.329727 
	C270.648285,224.069031 270.876953,222.419144 271.244843,220.800903 
	C279.960297,182.462189 314.351837,157.666534 354.090057,161.055695 
	C390.495880,164.160660 419.768494,195.021271 422.196106,232.856354 
	C424.998718,276.535339 389.195953,314.430298 345.728607,313.792328 
	C308.739319,313.249481 278.156616,287.689728 270.811493,251.179749 
z"/>
<path fill="#F39D18" opacity="1.000000" stroke="none" 
	d="
M279.048920,235.699341 
	C281.451904,197.130524 310.517487,169.133102 347.927032,170.223450 
	C378.012878,171.100342 405.219421,191.601364 411.730499,224.911652 
	C418.101471,257.505188 398.432007,290.666260 366.843170,300.884979 
	C328.807281,313.189301 287.871429,289.169037 280.283051,250.077103 
	C279.873230,247.965927 279.634552,245.821548 279.171600,243.317642 
	C279.887482,241.968597 280.747986,240.994522 282.100647,240.075623 
	C284.107666,242.070068 285.622589,244.009323 287.130798,246.346924 
	C292.690125,274.719330 312.175232,293.183624 339.621613,296.492462 
	C371.020752,300.277832 400.650299,277.340302 405.071564,245.715546 
	C411.774841,239.632568 411.615753,234.440781 404.742432,227.907410 
	C402.117889,213.049835 395.577972,200.752014 384.068512,191.503021 
	C365.804474,176.826050 345.362793,173.240784 323.654236,182.092834 
	C303.034241,190.501038 290.689209,206.181839 286.899353,228.645142 
	C285.082703,232.062073 283.501892,235.252823 281.921082,238.443573 
	C281.007721,237.620911 280.094330,236.798248 279.048920,235.699341 
z"/>
<path fill="#535C9D" opacity="1.000000" stroke="none" 
	d="
M270.533966,251.330353 
	C278.156616,287.689728 308.739319,313.249481 345.728607,313.792328 
	C389.195953,314.430298 424.998718,276.535339 422.196106,232.856354 
	C419.768494,195.021271 390.495880,164.160660 354.090057,161.055695 
	C314.351837,157.666534 279.960297,182.462189 271.244843,220.800903 
	C270.876953,222.419144 270.648285,224.069031 270.156616,226.077057 
	C266.247192,224.076508 265.288177,221.054199 266.567719,216.655197 
	C275.199982,186.977463 294.015686,166.885086 323.676605,158.433792 
	C354.429352,149.671432 381.961517,157.240677 404.417450,179.904251 
	C436.450470,212.233414 435.829865,263.373993 403.778839,295.457947 
	C360.469757,338.811401 284.836212,319.580780 267.387543,260.851471 
	C266.173737,256.765991 266.590698,253.779572 270.533966,251.330353 
z"/>
<path fill="#F8F7F6" opacity="1.000000" stroke="none" 
	d="
M287.137482,245.948593 
	C285.622589,244.009323 284.107666,242.070068 282.359741,239.869415 
	C282.095062,239.346786 282.051697,239.087524 281.958832,238.636902 
	C283.501892,235.252823 285.082703,232.062073 287.249298,228.545166 
	C289.487549,227.862091 291.139954,227.505173 293.101257,227.324402 
	C295.944702,229.727783 298.479340,231.955002 300.662720,234.317688 
	C297.859680,234.232361 295.398468,233.779785 292.959595,233.878555 
	C291.517700,233.936951 289.797729,234.548721 288.805847,235.524567 
	C288.208679,236.112030 288.283508,238.417130 288.920227,238.989838 
	C289.960999,239.925980 291.689911,240.413864 293.158783,240.487595 
	C295.760010,240.618134 298.383972,240.295990 300.924225,240.490891 
	C298.192078,242.907410 295.534119,244.996307 292.513245,247.014374 
	C290.479370,246.611908 288.808441,246.280243 287.137482,245.948593 
z"/>
<path fill="#0A7D39" opacity="1.000000" stroke="none" 
	d="
M166.545319,199.420563 
	C169.715500,199.638794 170.043671,198.490417 169.125153,196.156433 
	C167.420532,191.824997 165.644073,187.482925 164.486282,182.993454 
	C163.991943,181.076523 164.975281,178.778519 165.287170,176.653671 
	C167.395248,177.006104 170.015778,176.676712 171.532104,177.816422 
	C186.688965,189.208664 203.303024,197.841858 220.835236,204.896164 
	C222.688583,205.641891 225.112625,207.804230 225.167343,209.382324 
	C225.221329,210.939133 222.910904,213.345093 221.108307,214.080246 
	C203.460266,221.277847 186.662033,229.927246 171.342102,241.383347 
	C169.875153,242.480316 166.783569,242.730103 165.220261,241.905579 
	C164.182999,241.358490 163.861786,238.001404 164.374893,236.238281 
	C165.942459,230.851837 168.068710,225.627991 170.246964,219.594833 
	C144.871231,219.594833 120.144753,219.594833 95.204590,219.594833 
	C95.204590,212.703552 95.204590,206.420853 95.204590,199.422913 
	C118.892914,199.422913 142.493774,199.422913 166.545319,199.420563 
M174.627426,230.733093 
	C187.471985,223.554764 200.316528,216.376434 212.723068,209.442886 
	C200.095078,202.453842 187.044571,195.230957 173.908279,187.794479 
	C173.908279,187.794479 173.618896,187.802017 173.618896,187.802017 
	C173.618896,187.802017 174.009933,187.992111 173.968796,188.774292 
	C175.647812,194.259155 177.326843,199.744019 179.247223,206.017319 
	C176.608566,206.017319 174.817322,206.017319 173.026093,206.017319 
	C159.039932,206.017349 145.053772,206.016876 131.067612,206.017578 
	C122.742516,206.017990 114.414497,206.150436 106.093628,205.963638 
	C102.263756,205.877655 101.102898,207.852783 102.210846,210.834808 
	C102.634964,211.976288 105.282051,212.882233 106.922264,212.892242 
	C128.899704,213.026169 150.878220,212.975082 172.856461,212.995468 
	C174.765121,212.997238 176.673630,213.179123 179.009918,213.299362 
	C177.223495,219.655716 175.626251,225.338928 173.827820,231.067444 
	C173.827820,231.067444 173.779633,231.300232 173.779633,231.300232 
	C173.779633,231.300232 173.983856,230.975815 174.627426,230.733093 
z"/>
<path fill="#047E38" opacity="1.000000" stroke="none" 
	d="
M140.210693,243.232407 
	C143.612701,240.788422 146.570648,238.292694 149.880203,236.417587 
	C151.317123,235.603470 154.049713,235.316452 155.150894,236.156723 
	C156.287811,237.024277 156.901016,239.769211 156.449341,241.314621 
	C154.783569,247.013931 152.581955,252.556641 150.324158,258.879944 
	C175.701843,258.879944 200.382385,258.879944 225.358948,258.879944 
	C225.358948,265.702362 225.358948,271.959473 225.358948,278.769226 
	C200.587555,278.769226 175.873413,278.769226 150.181122,278.769226 
	C152.263962,284.490265 154.345230,289.353424 155.732346,294.407135 
	C156.348694,296.652679 155.564346,299.282654 155.415787,301.738159 
	C153.041977,301.264954 150.116837,301.519379 148.381042,300.204132 
	C133.665970,289.054321 117.457588,280.739655 100.445259,273.775970 
	C98.325691,272.908356 96.825607,270.527374 95.038483,268.847595 
	C96.879044,267.178802 98.474396,265.050293 100.600273,263.916412 
	C113.636543,256.963318 126.792923,250.235413 140.210693,243.232407 
M214.235748,265.140442 
	C190.317291,265.140442 166.398834,265.140442 141.322937,265.140442 
	C143.467575,258.722382 145.259399,253.360184 147.173981,247.630554 
	C133.462219,254.957977 120.414742,261.930420 107.324493,268.925690 
	C120.628517,276.093414 133.597443,283.080566 147.364731,290.497864 
	C145.134567,284.013977 143.212326,278.425323 141.024521,272.064606 
	C143.744080,272.064606 145.697113,272.064697 147.650146,272.064606 
	C169.967209,272.063599 192.284286,272.060638 214.601349,272.064423 
	C216.843918,272.064789 218.960495,272.185486 219.030212,268.886627 
	C219.091263,265.997955 217.850693,264.941132 214.235748,265.140442 
z"/>
<path fill="#595D9C" opacity="1.000000" stroke="none" 
	d="
M287.130798,246.346924 
	C288.808441,246.280243 290.479370,246.611908 292.548828,247.402008 
	C293.329346,249.465378 293.639648,251.091385 294.104340,252.671997 
	C300.359894,273.950806 320.256622,290.164581 341.493591,291.040710 
	C371.831726,293.999054 395.248047,271.374756 399.650635,247.025009 
	C401.619385,246.632050 403.238312,246.311401 404.857208,245.990738 
	C400.650299,277.340302 371.020752,300.277832 339.621613,296.492462 
	C312.175232,293.183624 292.690125,274.719330 287.130798,246.346924 
z"/>
<path fill="#575B9E" opacity="1.000000" stroke="none" 
	d="
M292.792389,227.148254 
	C291.139954,227.505173 289.487549,227.862091 287.485168,228.318985 
	C290.689209,206.181839 303.034241,190.501038 323.654236,182.092834 
	C345.362793,173.240784 365.804474,176.826050 384.068512,191.503021 
	C395.577972,200.752014 402.117889,213.049835 404.391418,227.820755 
	C402.402771,227.808380 400.746613,227.481903 399.047272,226.748535 
	C393.541687,198.503052 366.373413,178.969391 339.065552,183.545837 
	C315.247711,186.873276 297.070190,204.146652 292.792389,227.148254 
z"/>
<path fill="#F8F6F5" opacity="1.000000" stroke="none" 
	d="
M399.090485,227.155426 
	C400.746613,227.481903 402.402771,227.808380 404.409943,228.221527 
	C411.615753,234.440781 411.774841,239.632568 405.071564,245.715546 
	C403.238312,246.311401 401.619385,246.632050 399.293518,246.913498 
	C396.069214,244.639404 393.551819,242.404510 391.466125,240.101929 
	C394.177399,240.198181 396.464722,240.551178 398.733887,240.458664 
	C400.208618,240.398560 402.071838,240.087982 402.981750,239.140930 
	C403.672974,238.421524 403.691193,235.993118 403.009521,235.278687 
	C402.101318,234.326797 400.238037,234.013275 398.759247,233.939056 
	C396.177979,233.809540 393.577057,234.071854 391.072754,233.828827 
	C393.804230,231.376923 396.447357,229.266174 399.090485,227.155426 
z"/>
<path fill="#595E9C" opacity="1.000000" stroke="none" 
	d="
M390.984375,234.169952 
	C393.577057,234.071854 396.177979,233.809540 398.759247,233.939056 
	C400.238037,234.013275 402.101318,234.326797 403.009521,235.278687 
	C403.691193,235.993118 403.672974,238.421524 402.981750,239.140930 
	C402.071838,240.087982 400.208618,240.398560 398.733887,240.458664 
	C396.464722,240.551178 394.177399,240.198181 391.043396,240.043182 
	C388.766907,240.095261 387.344849,240.138351 385.477264,240.115906 
	C382.071594,240.050354 379.111389,240.050354 375.916412,240.050354 
	C376.095490,241.058823 376.132416,241.714554 376.330658,242.317230 
	C380.584991,255.252731 377.186768,264.212402 365.343719,271.344421 
	C364.532562,271.832916 363.358643,272.476013 363.224792,273.206787 
	C362.476013,277.295563 360.164948,280.433624 356.168427,280.393005 
	C352.981354,280.360657 349.814697,278.316986 346.220428,277.014435 
	C341.927429,281.556000 336.472168,282.607605 333.458923,277.945099 
	C330.956909,274.073792 328.074371,273.503601 324.157349,273.314850 
	C320.326569,273.130249 317.655487,270.918243 316.875031,266.969299 
	C316.066956,262.880951 317.574432,259.829773 321.276642,257.893402 
	C322.136597,257.443634 323.023346,257.045166 323.675415,256.730408 
	C323.675415,251.020599 323.675415,245.601166 323.675415,240.163269 
	C315.910156,240.163269 308.454285,240.163269 300.998413,240.163269 
	C298.383972,240.295990 295.760010,240.618134 293.158783,240.487595 
	C291.689911,240.413864 289.960999,239.925980 288.920227,238.989838 
	C288.283508,238.417130 288.208679,236.112030 288.805847,235.524567 
	C289.797729,234.548721 291.517700,233.936951 292.959595,233.878555 
	C295.398468,233.779785 297.859680,234.232361 301.122314,234.416550 
	C309.177185,234.379959 316.421265,234.379959 323.989502,234.379959 
	C323.989502,229.658691 323.882294,225.510147 324.029388,221.370636 
	C324.118713,218.856720 323.725525,217.221664 320.982208,216.081726 
	C317.314453,214.557663 316.157990,211.167877 316.911774,207.336945 
	C317.683044,203.417267 320.314911,201.326248 324.205139,200.959641 
	C326.331116,200.759293 328.491486,200.923874 330.404114,200.923874 
	C335.345825,192.059235 340.044373,191.332535 347.008575,197.979065 
	C352.874054,192.689209 359.511841,192.051849 361.452057,197.398972 
	C363.302826,202.499588 367.110321,205.170898 370.258575,208.802658 
	C374.364716,213.539368 376.147522,219.222565 375.324310,225.492844 
	C374.947998,228.359344 374.036102,231.155533 373.331604,234.133606 
	C377.729706,234.133606 381.857697,234.133606 386.394653,234.234833 
	C388.197174,234.280685 389.590790,234.225327 390.984375,234.169952 
M370.786194,258.959747 
	C374.558533,249.491333 373.021210,244.047638 364.377106,236.264633 
	C373.348694,224.131714 371.912567,215.621262 359.708649,207.596909 
	C358.728424,206.952377 358.488007,205.230927 357.813049,204.062347 
	C356.863831,202.418991 355.829651,200.824722 354.831787,199.209427 
	C353.942932,200.763992 353.004517,202.293335 352.192810,203.887192 
	C351.918701,204.425461 351.965576,205.127228 351.836609,205.937592 
	C348.598297,205.937592 345.505981,205.937592 343.525909,205.937592 
	C341.857208,203.234711 340.605103,201.206558 339.352966,199.178406 
	C337.991333,201.316452 336.629700,203.454498 334.897095,206.175003 
	C333.737518,206.175003 331.735168,206.011169 329.770874,206.214661 
	C327.042542,206.497269 323.051086,204.784317 322.496521,208.991608 
	C322.354797,210.067001 326.364014,211.689545 329.297791,213.603165 
	C329.297791,228.935181 329.297791,245.576538 329.297791,262.236420 
	C328.020386,262.382782 327.272888,262.281128 326.727783,262.566345 
	C325.153717,263.389832 323.661194,264.369171 322.136627,265.287323 
	C323.815338,266.189148 325.416107,267.607666 327.190491,267.875458 
	C330.074646,268.310669 333.072449,267.992828 334.832977,267.992828 
	C336.605957,270.920441 337.842621,272.962494 339.079315,275.004547 
	C340.460052,272.963440 341.840790,270.922333 343.678406,268.205750 
	C345.595947,268.205750 348.701080,268.205750 350.692841,268.205750 
	C352.307434,270.904663 353.534973,272.956512 354.762451,275.008362 
	C356.222137,272.824951 357.681824,270.641571 359.141510,268.458191 
	C359.210083,268.638702 359.278625,268.819183 359.347168,268.999695 
	C363.028168,265.869781 366.709167,262.739838 370.786194,258.959747 
z"/>
<path fill="#FBDE04" opacity="1.000000" stroke="none" 
	d="
M385.985687,234.133606 
	C381.857697,234.133606 377.729706,234.133606 373.331604,234.133606 
	C374.036102,231.155533 374.947998,228.359344 375.324310,225.492844 
	C376.147522,219.222565 374.364716,213.539368 370.258575,208.802658 
	C367.110321,205.170898 363.302826,202.499588 361.452057,197.398972 
	C359.511841,192.051849 352.874054,192.689209 347.008575,197.979065 
	C340.044373,191.332535 335.345825,192.059235 330.404114,200.923874 
	C328.491486,200.923874 326.331116,200.759293 324.205139,200.959641 
	C320.314911,201.326248 317.683044,203.417267 316.911774,207.336945 
	C316.157990,211.167877 317.314453,214.557663 320.982208,216.081726 
	C323.725525,217.221664 324.118713,218.856720 324.029388,221.370636 
	C323.882294,225.510147 323.989502,229.658691 323.989502,234.379959 
	C316.421265,234.379959 309.177185,234.379959 301.473572,234.281097 
	C298.479340,231.955002 295.944702,229.727783 293.101257,227.324402 
	C297.070190,204.146652 315.247711,186.873276 339.507904,183.664215 
	C353.766571,186.037643 364.823700,192.405975 373.569336,202.825073 
	C381.178833,211.890640 384.815735,222.520111 385.985687,234.133606 
z"/>
<path fill="#FDDF02" opacity="1.000000" stroke="none" 
	d="
M300.924225,240.490891 
	C308.454285,240.163269 315.910156,240.163269 323.675415,240.163269 
	C323.675415,245.601166 323.675415,251.020599 323.675415,256.730408 
	C323.023346,257.045166 322.136597,257.443634 321.276642,257.893402 
	C317.574432,259.829773 316.066956,262.880951 316.875031,266.969299 
	C317.655487,270.918243 320.326569,273.130249 324.157349,273.314850 
	C328.074371,273.503601 330.956909,274.073792 333.458923,277.945099 
	C336.472168,282.607605 341.927429,281.556000 346.220428,277.014435 
	C349.814697,278.316986 352.981354,280.360657 356.168427,280.393005 
	C360.164948,280.433624 362.476013,277.295563 363.224792,273.206787 
	C363.358643,272.476013 364.532562,271.832916 365.343719,271.344421 
	C377.186768,264.212402 380.584991,255.252731 376.330658,242.317230 
	C376.132416,241.714554 376.095490,241.058823 375.916412,240.050354 
	C379.111389,240.050354 382.071594,240.050354 385.484833,240.520142 
	C384.438629,255.420410 378.752563,267.745209 367.905914,277.619659 
	C360.186615,284.647125 350.838257,288.206177 341.039276,290.945251 
	C320.256622,290.164581 300.359894,273.950806 294.104340,252.671997 
	C293.639648,251.091385 293.329346,249.465378 292.911713,247.472839 
	C295.534119,244.996307 298.192078,242.907410 300.924225,240.490891 
z"/>
<path fill="#355573" opacity="1.000000" stroke="none" 
	d="
M173.994064,188.008057 
	C187.044571,195.230957 200.095078,202.453842 212.723068,209.442886 
	C200.316528,216.376434 187.471985,223.554764 174.315536,230.867249 
	C174.003647,231.001419 174.029007,231.022125 174.029007,231.022125 
	C175.626251,225.338928 177.223495,219.655716 179.009918,213.299362 
	C176.673630,213.179123 174.765121,212.997238 172.856461,212.995468 
	C150.878220,212.975082 128.899704,213.026169 106.922264,212.892242 
	C105.282051,212.882233 102.634964,211.976288 102.210846,210.834808 
	C101.102898,207.852783 102.263756,205.877655 106.093628,205.963638 
	C114.414497,206.150436 122.742516,206.017990 131.067612,206.017578 
	C145.053772,206.016876 159.039932,206.017349 173.026093,206.017319 
	C174.817322,206.017319 176.608566,206.017319 179.247223,206.017319 
	C177.326843,199.744019 175.647812,194.259155 173.984589,188.386993 
	C174.000381,187.999695 173.994064,188.008057 173.994064,188.008057 
z"/>
<path fill="#355573" opacity="1.000000" stroke="none" 
	d="
M173.993744,230.988617 
	C173.983856,230.975815 173.779633,231.300232 173.779633,231.300232 
	C173.779633,231.300232 173.827820,231.067444 173.928406,231.044785 
	C174.029007,231.022125 174.003647,231.001419 173.993744,230.988617 
z"/>
<path fill="#355573" opacity="1.000000" stroke="none" 
	d="
M174.005157,187.995911 
	C174.009933,187.992111 173.618896,187.802017 173.618896,187.802017 
	C173.618896,187.802017 173.908279,187.794479 173.951172,187.901276 
	C173.994064,188.008057 174.000381,187.999695 174.005157,187.995911 
z"/>
<path fill="#345672" opacity="1.000000" stroke="none" 
	d="
M214.696167,265.143127 
	C217.850693,264.941132 219.091263,265.997955 219.030212,268.886627 
	C218.960495,272.185486 216.843918,272.064789 214.601349,272.064423 
	C192.284286,272.060638 169.967209,272.063599 147.650146,272.064606 
	C145.697113,272.064697 143.744080,272.064606 141.024521,272.064606 
	C143.212326,278.425323 145.134567,284.013977 147.364731,290.497864 
	C133.597443,283.080566 120.628517,276.093414 107.324493,268.925690 
	C120.414742,261.930420 133.462219,254.957977 147.173981,247.630554 
	C145.259399,253.360184 143.467575,258.722382 141.322937,265.140442 
	C166.398834,265.140442 190.317291,265.140442 214.696167,265.143127 
z"/>
<path fill="#F39E17" opacity="1.000000" stroke="none" 
	d="
M341.493591,291.040710 
	C350.838257,288.206177 360.186615,284.647125 367.905914,277.619659 
	C378.752563,267.745209 384.438629,255.420410 385.930328,240.585678 
	C387.344849,240.138351 388.766907,240.095261 390.611725,240.110901 
	C393.551819,242.404510 396.069214,244.639404 398.943695,246.985794 
	C395.248047,271.374756 371.831726,293.999054 341.493591,291.040710 
z"/>
<path fill="#F19E19" opacity="1.000000" stroke="none" 
	d="
M386.394653,234.234833 
	C384.815735,222.520111 381.178833,211.890640 373.569336,202.825073 
	C364.823700,192.405975 353.766571,186.037643 339.908295,183.652832 
	C366.373413,178.969391 393.541687,198.503052 399.047272,226.748520 
	C396.447357,229.266174 393.804230,231.376923 391.072754,233.828827 
	C389.590790,234.225327 388.197174,234.280685 386.394653,234.234833 
z"/>
<path fill="#FADD05" opacity="1.000000" stroke="none" 
	d="
M370.588196,259.284851 
	C366.709167,262.739838 363.028168,265.869781 359.347168,268.999695 
	C359.278625,268.819183 359.210083,268.638702 359.141510,268.458191 
	C357.681824,270.641571 356.222137,272.824951 354.762451,275.008362 
	C353.534973,272.956512 352.307434,270.904663 350.692841,268.205750 
	C348.701080,268.205750 345.595947,268.205750 343.678406,268.205750 
	C341.840790,270.922333 340.460052,272.963440 339.079315,275.004547 
	C337.842621,272.962494 336.605957,270.920441 334.832977,267.992828 
	C333.072449,267.992828 330.074646,268.310669 327.190491,267.875458 
	C325.416107,267.607666 323.815338,266.189148 322.136627,265.287323 
	C323.661194,264.369171 325.153717,263.389832 326.727783,262.566345 
	C327.272888,262.281128 328.020386,262.382782 329.297791,262.236420 
	C329.297791,245.576538 329.297791,228.935181 329.297791,213.603165 
	C326.364014,211.689545 322.354797,210.067001 322.496521,208.991608 
	C323.051086,204.784317 327.042542,206.497269 329.770874,206.214661 
	C331.735168,206.011169 333.737518,206.175003 334.897095,206.175003 
	C336.629700,203.454498 337.991333,201.316452 339.352966,199.178406 
	C340.605103,201.206558 341.857208,203.234711 343.525909,205.937592 
	C345.505981,205.937592 348.598297,205.937592 351.836609,205.937592 
	C351.965576,205.127228 351.918701,204.425461 352.192810,203.887192 
	C353.004517,202.293335 353.942932,200.763992 354.831787,199.209442 
	C355.829651,200.824722 356.863831,202.418991 357.813049,204.062347 
	C358.488007,205.230927 358.728424,206.952377 359.708649,207.596909 
	C371.912567,215.621262 373.348694,224.131714 364.377106,236.264633 
	C373.021210,244.047638 374.558533,249.491333 370.588196,259.284851 
M334.999573,242.726517 
	C334.999573,249.171356 334.999573,255.616196 334.999573,262.317993 
	C342.820435,262.317993 350.139435,262.693146 357.400085,262.203522 
	C363.603577,261.785095 367.500641,256.547302 367.130676,250.435715 
	C366.783936,244.706787 362.277008,240.197449 356.369263,240.037338 
	C350.210510,239.870407 344.041840,239.922989 337.882477,240.078339 
	C336.913971,240.102783 335.971985,241.179794 334.999573,242.726517 
M356.907318,233.799637 
	C362.766357,230.745148 365.209869,226.884491 364.445129,221.657074 
	C363.718750,216.691879 360.850739,212.845093 356.018005,212.331665 
	C349.182037,211.605392 342.211304,212.147583 335.365662,212.147583 
	C335.365662,219.756287 335.365662,226.969650 335.365662,233.987625 
	C342.533936,233.987625 349.329437,233.987625 356.907318,233.799637 
z"/>
<path fill="#575D9D" opacity="1.000000" stroke="none" 
	d="
M335.008667,242.248322 
	C335.971985,241.179794 336.913971,240.102783 337.882477,240.078339 
	C344.041840,239.922989 350.210510,239.870407 356.369263,240.037338 
	C362.277008,240.197449 366.783936,244.706787 367.130676,250.435715 
	C367.500641,256.547302 363.603577,261.785095 357.400085,262.203522 
	C350.139435,262.693146 342.820435,262.317993 334.999573,262.317993 
	C334.999573,255.616196 334.999573,249.171356 335.008667,242.248322 
M340.943359,256.771790 
	C345.738068,256.847198 350.533203,256.903015 355.327362,257.004242 
	C359.132874,257.084564 361.453217,255.080872 361.697357,251.499191 
	C361.952728,247.753632 359.377838,245.584091 355.878418,245.361816 
	C350.823944,245.040817 345.733917,245.279724 340.326935,245.279724 
	C340.326935,249.213486 340.326935,252.647858 340.943359,256.771790 
z"/>
<path fill="#585D9D" opacity="1.000000" stroke="none" 
	d="
M356.516113,233.893631 
	C349.329437,233.987625 342.533936,233.987625 335.365662,233.987625 
	C335.365662,226.969650 335.365662,219.756287 335.365662,212.147583 
	C342.211304,212.147583 349.182037,211.605392 356.018005,212.331665 
	C360.850739,212.845093 363.718750,216.691879 364.445129,221.657074 
	C365.209869,226.884491 362.766357,230.745148 356.516113,233.893631 
M343.728882,229.001358 
	C347.049866,228.980789 350.582855,229.646057 353.619995,228.707214 
	C355.773956,228.041397 358.596863,225.257645 358.666840,223.330170 
	C358.737549,221.382721 356.051361,217.976944 354.100861,217.590057 
	C349.704315,216.718048 345.016144,217.316299 340.172913,217.316299 
	C340.172913,220.790070 339.953003,223.625565 340.293304,226.392151 
	C340.410919,227.348495 341.921356,228.133484 343.728882,229.001358 
z"/>
<path fill="#F8DB07" opacity="1.000000" stroke="none" 
	d="
M340.635132,256.427002 
	C340.326935,252.647858 340.326935,249.213486 340.326935,245.279724 
	C345.733917,245.279724 350.823944,245.040817 355.878418,245.361816 
	C359.377838,245.584091 361.952728,247.753632 361.697357,251.499191 
	C361.453217,255.080872 359.132874,257.084564 355.327362,257.004242 
	C350.533203,256.903015 345.738068,256.847198 340.635132,256.427002 
z"/>
<path fill="#F7DB07" opacity="1.000000" stroke="none" 
	d="
M343.262238,228.999054 
	C341.921356,228.133484 340.410919,227.348495 340.293304,226.392151 
	C339.953003,223.625565 340.172913,220.790070 340.172913,217.316299 
	C345.016144,217.316299 349.704315,216.718048 354.100861,217.590057 
	C356.051361,217.976944 358.737549,221.382721 358.666840,223.330170 
	C358.596863,225.257645 355.773956,228.041397 353.619995,228.707214 
	C350.582855,229.646057 347.049866,228.980789 343.262238,228.999054 
z"/>
</svg>